<svg width="66" height="66" viewBox="0 0 66 66" fill="none" xmlns="http://www.w3.org/2000/svg">
<rect x="3" y="3" width="60" height="60" rx="10" fill="white"/>
<rect x="1.5" y="1.5" width="63" height="63" rx="11.5" stroke="black" stroke-opacity="0.2" stroke-width="3"/>
<path fill-rule="evenodd" clip-rule="evenodd" d="M33.0615 19.5C33.89 19.5 34.5615 20.1716 34.5615 21L34.5615 24.0154C34.5615 24.8438 33.89 25.5154 33.0615 25.5154C32.2331 25.5154 31.5615 24.8438 31.5615 24.0154L31.5615 21C31.5615 20.1716 32.2331 19.5 33.0615 19.5Z" fill="#373737"/>
<path fill-rule="evenodd" clip-rule="evenodd" d="M40.6077 33.0615C40.6077 32.2331 41.2793 31.5615 42.1077 31.5615H45.1231C45.9515 31.5615 46.6231 32.2331 46.6231 33.0615C46.6231 33.89 45.9515 34.5615 45.1231 34.5615H42.1077C41.2793 34.5615 40.6077 33.89 40.6077 33.0615Z" fill="#373737"/>
<path fill-rule="evenodd" clip-rule="evenodd" d="M33.0615 40.6077C33.89 40.6077 34.5615 41.2792 34.5615 42.1077L34.5615 45.1231C34.5615 45.9515 33.89 46.6231 33.0615 46.6231C32.2331 46.6231 31.5615 45.9515 31.5615 45.1231L31.5615 42.1077C31.5615 41.2792 32.2331 40.6077 33.0615 40.6077Z" fill="#373737"/>
<path fill-rule="evenodd" clip-rule="evenodd" d="M19.5 33.0615C19.5 32.2331 20.1716 31.5615 21 31.5615L24.0154 31.5615C24.8438 31.5615 25.5154 32.2331 25.5154 33.0615C25.5154 33.89 24.8438 34.5615 24.0154 34.5615L21 34.5615C20.1716 34.5615 19.5 33.89 19.5 33.0615Z" fill="#373737"/>
<circle cx="33" cy="33" r="4" fill="#373737"/>
<path fill-rule="evenodd" clip-rule="evenodd" d="M33.0616 25.5154C28.894 25.5154 25.5154 28.8939 25.5154 33.0615C25.5154 37.2292 28.894 40.6077 33.0616 40.6077C37.2292 40.6077 40.6078 37.2292 40.6078 33.0615C40.6078 28.8939 37.2292 25.5154 33.0616 25.5154ZM22.5154 33.0615C22.5154 27.2371 27.2371 22.5154 33.0616 22.5154C38.8861 22.5154 43.6078 27.2371 43.6078 33.0615C43.6078 38.886 38.8861 43.6077 33.0616 43.6077C27.2371 43.6077 22.5154 38.886 22.5154 33.0615Z" fill="#373737"/>
</svg>
