<svg width="356" height="66" viewBox="0 0 356 66" fill="none" xmlns="http://www.w3.org/2000/svg">
<rect x="1.5" y="1.5" width="353" height="63" rx="11.5" fill="#5E7BC7"/>
<rect x="1.5" y="1.5" width="353" height="63" rx="11.5" stroke="#808080" stroke-width="3"/>
<path d="M179.493 37.5798C180.759 35.8964 181.449 33.826 181.449 31.7243C181.449 26.3603 177.088 22 171.724 22C166.36 22 162 26.3603 162 31.7243C162 37.0884 166.36 41.4487 171.724 41.4487C173.826 41.4487 175.896 40.7586 177.58 39.4933L182.076 44L184 42.076L179.493 37.5798ZM176.607 36.7538C175.29 38.0295 173.554 38.73 171.724 38.73C169.894 38.73 168.086 37.9981 166.768 36.6702C165.44 35.3422 164.719 33.5856 164.719 31.7243C164.719 27.866 167.866 24.7186 171.724 24.7186C175.583 24.7186 178.73 27.866 178.73 31.7243C178.73 33.5542 178.029 35.2899 176.754 36.6074L176.607 36.7538Z" fill="white"/>
</svg>
